<?xml version="1.0" encoding="UTF-8" standalone="no"?>
<svg
   version="1.1"
   viewBox="146.83 150.41 877.18 873.6"
   id="svg8"
   sodipodi:docname="trace-cropped2.svg"
   inkscape:version="1.2.2 (b0a8486541, 2022-12-01)"
   xmlns:inkscape="http://www.inkscape.org/namespaces/inkscape"
   xmlns:sodipodi="http://sodipodi.sourceforge.net/DTD/sodipodi-0.dtd"
   xmlns="http://www.w3.org/2000/svg"
   xmlns:svg="http://www.w3.org/2000/svg">
  <defs
     id="defs12" />
  <sodipodi:namedview
     id="namedview10"
     pagecolor="#ffffff"
     bordercolor="#000000"
     borderopacity="0.25"
     inkscape:showpageshadow="2"
     inkscape:pageopacity="0.0"
     inkscape:pagecheckerboard="0"
     inkscape:deskcolor="#d1d1d1"
     showgrid="false"
     inkscape:zoom="2.53"
     inkscape:cx="370.94862"
     inkscape:cy="123.71542"
     inkscape:window-width="1920"
     inkscape:window-height="1011"
     inkscape:window-x="0"
     inkscape:window-y="0"
     inkscape:window-maximized="1"
     inkscape:current-layer="svg8" />
  <path
     d="m 607.079,280.299 c -4.631,5.061 -12.394,13.369 -17.25,18.464 -9.825,10.308 -9.889,10.433 -6.216,12.106 5.019,2.287 19.1066,17.02417 26.5246,24.36917 4.112,4.072 19.30041,-15.34886 19.25251,-15.55333 -1.18328,-5.05187 26.56739,-12.0122 12.44539,-25.5952 -24.98091,-23.56128 -25.88961,-25.27413 -36.22861,-13.97813 M 399.84,297.386 c -10.814,11.062 -7.46459,8.44242 -9.97859,11.26142 l -19.43852,20.10587 8.68911,6.28571 8.072,7.29 3.409,-3.721 c 6.091,-6.649 10.368,-7.826 23.877,-6.569 l 11.592,1.079 8.44,-8.892 c 7.829,-8.249 16.50714,-19.04335 15.79395,-19.70229 -18.22659,-16.84004 -25.00966,-21.61776 -30.04,-27.99369 M 521.536,326.046 c -12.445,1.953 -25.579,7.864 -34.067,15.333 l -4.937,4.345 2.835,5.208 c 2.754,5.06 2.825,5.565 2.484,17.639 -0.193,6.836 -0.262,12.429 -0.154,12.429 0.108,0 3.037,-2.15 6.508,-4.777 11.029,-8.347 29.853,-16.131 47.795,-19.763 1.925,-0.39 4.625,-1.496 6,-2.459 4.115,-2.88 17.066,-9.135 23.802,-11.496 7.666,-2.686 7.792,-3.222 1.614,-6.852 -14.107,-8.289 -35.289,-12.211 -51.88,-9.607 M 410.6,374.73 c -0.338,8.673 -0.862,20.327 -1.165,25.897 l -0.552,10.127 6.808,0.642 c 3.745,0.353 9.33,0.894 12.41,1.204 l 5.601,0.562 0.64,-5.331 c 0.353,-2.932 0.645,-8.849 0.649,-13.148 0.008,-6.963 0.2,-7.764 1.759,-7.327 0.962,0.269 6.587,0.793 12.5,1.163 l 10.75,0.673 0.011,-8.846 c 0.006,-4.865 0.279,-10.466 0.606,-12.446 l 0.596,-3.6 -5.857,-0.689 c -3.221,-0.379 -12.381,-1.339 -20.356,-2.134 -7.975,-0.795 -16.59,-1.686 -19.144,-1.981 l -4.644,-0.537 -0.612,15.771 m 128.9,9.835 c -11.209,2.204 -31.259,11.398 -29.846,13.685 0.393,0.636 0.176,0.763 -0.543,0.318 -1.497,-0.924 -4.319,1.287 -3.445,2.7 0.353,0.572 0.178,0.754 -0.389,0.403 -1.209,-0.747 -10.218,5.856 -10.403,7.625 -0.07,0.662 -0.182,2.178 -0.25,3.368 -0.068,1.19 -0.401,2.442 -0.74,2.782 -0.339,0.341 -0.491,-0.522 -0.338,-1.918 0.524,-4.774 -9.312,7.202 -11.594,14.116 -0.658,1.996 -2.232,5.153 -3.497,7.018 -5.442,8.019 -8.566,36.942 -5.491,50.838 20.249,91.504 150.367,92.374 170.547,1.141 C 656.987,425.718 602.441,372.187 539.5,384.565 m -164.701,9.796 c -43.884,25.008 -37.14,53.567 17.411,73.723 12.023,4.442 44.416,11.913 51.671,11.917 3.435,0.002 2.258,-18.966 -1.366,-22.001 -1.641,-1.375 -6.657,-5.895 -11.146,-10.044 l -8.161,-7.544 -11.521,-1.263 c -25.998,-2.852 -30.341,-7.859 -29.405,-33.899 0.302,-8.387 0.463,-15.25 0.359,-15.25 -0.104,0 -3.633,1.962 -7.842,4.361 m 277.46,-2.347 c -8.931,1.304 -8.885,1.146 -2.685,9.17 3.077,3.982 6.243,8.495 7.036,10.028 1.303,2.52 1.952,2.788 6.759,2.788 8.739,0 24.51,6.789 30.087,12.952 2.652,2.93 3.59,2.535 2.854,-1.202 -1.601,-8.126 -9.744,-22.652 -17.097,-30.5 l -3.982,-4.25 -8.865,0.125 c -4.877,0.068 -11.225,0.469 -14.107,0.889 M 352,478.188 c 0,0.639 1.985,12.446 4.412,26.237 2.426,13.791 5.379,31.15 6.562,38.575 1.183,7.425 4.587,27 7.564,43.5 2.978,16.5 6.764,38.55 8.415,49 1.651,10.45 4.811,29.125 7.023,41.5 2.212,12.375 5.643,32.625 7.624,45 4.343,27.135 4.526,27.623 12.578,33.556 22.885,16.86 61.644,27.09 110.133,29.067 l 16.189,0.66 0.307,-59.846 c 0.356,-69.324 0.856,-63.963 -6.043,-64.859 -17.977,-2.335 -55.047,-20.163 -70.764,-34.032 -1.375,-1.213 -6.55,-4.86 -11.5,-8.104 -29.275,-19.185 -64.888,-62.439 -63.265,-76.839 2.091,-18.546 20.333,-17.441 29.947,1.815 22.165,44.396 68.658,74.529 115.068,74.576 L 532,618 v -9.911 -9.911 l -7.25,-6.254 c -44.31,-38.219 -59.019,-54.142 -69.297,-75.02 l -3.739,-7.597 -15.607,-2.667 C 401.984,500.807 375.435,492.016 357.718,480.682 354.573,478.671 352,477.548 352,478.188 m 359.698,109.211 c -15.584,5.744 -23.94,22.498 -18.147,36.383 1.894,4.538 88.386,91.757 92.949,93.73 27.26,11.788 48.986,-22.487 27.897,-44.012 -27.586,-28.157 -84.631,-83.439 -87.46,-84.757 -5.261,-2.45 -10.891,-2.947 -15.239,-1.344 M 1013.875,869.5 c -0.069,0.275 -0.193,0.837 -0.276,1.25 -0.836,4.149 -4.751,5.665 -7.098,2.75 -1.541,-1.913 -1.556,-1.891 -0.344,0.5 0.697,1.375 1.177,2.824 1.065,3.22 -0.111,0.396 0.653,1.178 1.698,1.737 2.142,1.146 1.754,5.239 -0.417,4.406 -0.716,-0.275 -1.598,-0.019 -1.961,0.569 -0.363,0.587 -0.105,1.068 0.573,1.068 0.692,0 0.236,1.061 -1.037,2.417 -1.84,1.959 -2.057,2.764 -1.146,4.25 1.014,1.654 1.097,1.598 0.846,-0.574 -0.153,-1.324 0.285,-2.599 0.973,-2.834 0.768,-0.262 1.031,0.145 0.682,1.056 -0.313,0.816 -0.152,1.741 0.358,2.056 0.51,0.315 0.809,-0.509 0.664,-1.831 -0.206,-1.873 0.101,-2.266 1.391,-1.778 1.459,0.552 1.448,0.418 -0.096,-1.139 -2.145,-2.164 -2.217,-2.74 -0.25,-1.985 1.062,0.408 1.523,-0.113 1.579,-1.781 0.043,-1.296 0.306,-1.794 0.583,-1.107 0.278,0.688 0.933,1.25 1.457,1.25 0.549,0 0.48,-0.881 -0.165,-2.086 -0.614,-1.147 -0.837,-2.365 -0.495,-2.706 0.341,-0.341 0.88,0.372 1.197,1.586 0.318,1.213 1.226,2.206 2.02,2.206 0.793,0 1.188,-0.411 0.878,-0.912 -0.68,-1.101 4.208,-0.691 5.229,0.437 0.394,0.437 -0.104,0.498 -1.107,0.137 -1.07,-0.385 -2.444,-0.037 -3.322,0.841 -1.05,1.05 -1.128,1.497 -0.259,1.497 0.681,0 0.949,0.289 0.596,0.643 -0.354,0.353 -1.393,0.019 -2.311,-0.743 -1.488,-1.234 -1.594,-1.151 -0.984,0.774 0.377,1.187 0.268,2.416 -0.242,2.731 -0.511,0.315 -0.866,0.016 -0.791,-0.666 0.075,-0.681 -0.313,-1.357 -0.863,-1.502 -0.55,-0.144 -1.05,0.619 -1.111,1.697 -0.119,2.1 2.108,3.495 3.856,2.415 0.635,-0.393 0.77,-0.182 0.334,0.523 -0.401,0.65 -1.48,1.057 -2.396,0.905 -1.239,-0.206 -1.64,0.431 -1.562,2.482 0.09,2.361 -0.115,2.577 -1.419,1.5 -1.316,-1.087 -1.453,-0.883 -1.002,1.491 0.288,1.513 0.109,2.75 -0.398,2.75 -0.506,0 -0.645,0.445 -0.309,0.989 0.367,0.593 -0.109,0.718 -1.191,0.312 -1.64,-0.615 -1.668,-0.507 -0.302,1.204 0.825,1.033 0.965,1.558 0.311,1.166 -0.67,-0.402 -1.638,0.059 -2.219,1.058 -0.567,0.974 -1.045,1.378 -1.062,0.899 -0.016,-0.48 -0.705,-0.313 -1.53,0.372 -1.209,1.003 -1.512,0.979 -1.563,-0.128 -0.035,-0.754 -0.486,-0.318 -1.002,0.97 -0.517,1.289 -0.706,2.72 -0.421,3.181 0.285,0.461 0.061,1.121 -0.498,1.467 -0.559,0.345 -1.016,0.119 -1.016,-0.502 0,-0.637 -0.712,-0.419 -1.629,0.498 -0.896,0.896 -2.246,1.392 -3,1.103 -0.754,-0.289 -1.371,0 -1.371,0.642 0,0.874 -0.302,0.867 -1.2,-0.031 -0.66,-0.66 -1.898,-1.164 -2.75,-1.121 -0.91,0.046 -1.066,0.277 -0.377,0.558 0.66,0.269 0.979,1.657 0.729,3.171 -0.306,1.85 -0.161,2.261 0.465,1.314 0.5,-0.758 1.41,-1.069 2.021,-0.691 1.828,1.129 1.261,2.569 -1.01,2.569 -1.865,0 -1.96,0.212 -0.783,1.75 0.736,0.962 0.948,1.419 0.471,1.016 -0.478,-0.404 -1.476,0.046 -2.22,1 -1.257,1.613 -1.304,1.601 -0.679,-0.18 0.431,-1.226 0.293,-1.679 -0.384,-1.261 -0.581,0.359 -1.583,0.018 -2.227,-0.757 -0.956,-1.153 -0.794,-1.312 0.887,-0.873 1.751,0.458 2.057,0.075 2.057,-2.578 0,-1.715 -0.365,-3.117 -0.81,-3.117 -0.446,0 -2.327,-1.462 -4.182,-3.25 -1.854,-1.788 -3.017,-2.654 -2.585,-1.926 1.086,1.828 1.372,7.176 0.384,7.176 -0.444,0 -0.821,-0.562 -0.837,-1.25 -0.017,-0.687 -0.508,-0.429 -1.092,0.575 -0.584,1.004 -0.795,2.091 -0.47,2.417 0.326,0.325 0.592,0.08 0.592,-0.544 0,-0.635 0.713,-0.862 1.617,-0.515 1.354,0.52 1.232,0.842 -0.75,1.977 l -2.367,1.356 2.75,-0.616 c 1.513,-0.339 2.75,-0.214 2.75,0.279 0,0.493 -1.35,0.998 -3,1.124 -1.65,0.126 -3,-0.255 -3,-0.846 0,-0.591 -0.477,-0.78 -1.06,-0.42 -1.338,0.827 2.002,3.422 3.61,2.805 0.714,-0.273 1.067,0.694 0.953,2.612 -0.1,1.675 0.182,3.046 0.626,3.046 0.445,0 0.549,0.675 0.233,1.5 -0.407,1.061 0.114,1.525 1.781,1.586 3.266,0.119 -2.071,1.822 -7.503,2.394 -5.113,0.538 -3.776,-0.676 1.629,-1.479 l 4.231,-0.629 -4.655,-0.436 c -2.56,-0.24 -4.465,-0.13 -4.233,0.245 0.231,0.374 -0.017,0.951 -0.552,1.282 -2.041,1.261 0.018,3.566 2.161,2.419 1.538,-0.823 1.842,-0.794 1.274,0.125 -0.528,0.856 -0.152,1.019 1.296,0.559 1.122,-0.356 2.295,-0.236 2.606,0.268 1.171,1.894 -8.296,0.686 -9.703,-1.238 -0.753,-1.029 -2.004,-1.62 -2.781,-1.313 -1.041,0.412 -0.952,0.58 0.337,0.638 1.78,0.08 2.139,1.005 1.779,4.579 -0.275,2.729 -1.376,3.688 -3.362,2.926 -2.304,-0.884 -2.093,-3.502 0.333,-4.136 2.348,-0.614 2.691,-2.29 0.469,-2.29 -0.843,0 -1.79,0.672 -2.105,1.494 -0.316,0.822 -1.047,1.202 -1.626,0.844 -0.663,-0.41 -0.851,0.12 -0.509,1.431 0.394,1.504 0.157,1.933 -0.854,1.545 -0.97,-0.373 -1.206,-0.036 -0.77,1.1 0.484,1.262 0.943,1.376 2,0.499 1.057,-0.878 1.516,-0.761 2.004,0.51 0.574,1.496 0.849,1.507 2.977,0.113 1.289,-0.845 3.597,-1.495 5.129,-1.446 2.633,0.085 2.593,0.145 -0.715,1.09 -5.47,1.563 -6.576,2.877 -4.036,4.793 2.042,1.54 2.047,1.598 0.149,1.598 -1.084,0 -1.907,-0.241 -1.829,-0.535 0.411,-1.563 -2.485,-4.896 -3.812,-4.387 -0.824,0.316 -2.279,-0.038 -3.235,-0.787 -1.604,-1.258 -1.622,-1.214 -0.237,0.561 1.405,1.802 1.344,1.884 -0.963,1.288 -2.678,-0.691 -6.037,1.541 -6.037,4.011 0,0.937 -0.645,1.208 -1.916,0.805 -2.274,-0.722 -3.783,1.174 -2.197,2.76 0.817,0.817 1.113,0.794 1.113,-0.087 0,-1.714 3.676,-1.488 4.349,0.268 0.31,0.807 0.133,1.734 -0.393,2.059 -0.526,0.325 -0.956,-0.111 -0.956,-0.968 0,-1.613 -1.167,-2.058 -2.336,-0.89 -0.367,0.368 0.12,1.605 1.084,2.75 1.751,2.079 1.75,2.079 -0.498,0.176 -1.237,-1.048 -2.264,-1.498 -2.28,-1 -0.017,0.498 -0.481,0.133 -1.03,-0.81 -0.829,-1.421 -1.424,-1.522 -3.47,-0.589 -2.496,1.137 -3.346,2.804 -1.431,2.804 0.601,0 0.498,0.58 -0.244,1.375 -0.707,0.756 -1.804,1.175 -2.439,0.932 -0.634,-0.244 -1.448,0.032 -1.807,0.613 -0.387,0.628 -0.063,0.831 0.798,0.5 1.444,-0.554 2.925,0.947 3.286,3.33 0.105,0.688 -0.22,1.25 -0.721,1.25 -0.502,0 -0.912,-0.675 -0.912,-1.5 0,-0.825 -0.45,-1.5 -1,-1.5 -0.55,0 -1,0.627 -1,1.393 0,0.766 -0.675,1.652 -1.5,1.969 -0.825,0.316 -1.5,0.177 -1.5,-0.31 0,-0.487 0.436,-1.035 0.968,-1.219 0.616,-0.212 0.622,-0.878 0.015,-1.833 -0.812,-1.279 -0.955,-1.243 -0.968,0.25 -0.017,2.003 -2.955,2.326 -6.331,0.695 -1.972,-0.953 -2.015,-0.919 -0.45,0.349 0.954,0.772 1.446,1.693 1.092,2.046 -0.353,0.354 -1.193,0.185 -1.867,-0.374 -0.856,-0.711 -1.382,-0.61 -1.744,0.334 -0.537,1.4 2.609,1.71 3.931,0.387 0.378,-0.378 1.094,-0.687 1.592,-0.687 0.498,0 0.23,0.675 -0.595,1.5 -0.825,0.825 -2.459,1.5 -3.631,1.5 -1.188,0 -1.852,0.449 -1.502,1.016 0.346,0.559 1.044,0.76 1.551,0.446 0.508,-0.314 1.669,-0.153 2.58,0.357 1.306,0.731 0.884,1.018 -1.992,1.353 -2.007,0.235 -3.649,0.142 -3.649,-0.206 0,-0.348 -0.675,-0.633 -1.5,-0.633 -0.825,0 -1.5,0.375 -1.5,0.834 0,0.458 0.477,0.833 1.059,0.833 0.582,0 0.797,0.423 0.478,0.941 -0.343,0.554 0.797,0.717 2.774,0.396 2.627,-0.426 3.356,-0.2 3.356,1.043 0,1.166 -0.336,1.31 -1.264,0.54 -0.93,-0.772 -1.566,-0.483 -2.41,1.093 -0.63,1.178 -1.75,1.911 -2.487,1.628 -0.737,-0.283 -1.601,0.163 -1.918,0.991 -0.392,1.021 -1.264,1.288 -2.708,0.83 -1.173,-0.372 -1.882,-0.275 -1.579,0.217 0.304,0.491 -0.345,0.892 -1.442,0.892 -1.743,0 -1.797,-0.143 -0.426,-1.146 1.994,-1.458 2.038,-2.82 0.067,-2.063 -2.249,0.863 -5.062,-0.39 -3.334,-1.486 1.819,-1.153 3.085,-1.092 2.341,0.113 -0.357,0.577 0.069,0.727 1.025,0.36 1.145,-0.439 1.285,-0.844 0.468,-1.349 -0.642,-0.397 0.176,-0.672 1.818,-0.611 2.986,0.111 3.452,1.611 0.501,1.611 -1.277,0 -1.335,0.275 -0.319,1.5 0.685,0.825 1.715,1.5 2.289,1.5 0.574,0 0.766,-0.279 0.425,-0.619 -0.34,-0.341 0.056,-1.294 0.881,-2.119 1.851,-1.851 1.257,-2.53 -2.327,-2.661 -1.642,-0.06 -2.666,-0.609 -2.518,-1.351 0.347,-1.735 -0.035,-1.597 -3.277,1.189 -1.561,1.341 -2.947,3.182 -3.08,4.091 -0.363,2.474 -1.175,2.896 -2.869,1.49 -1.042,-0.865 -1.524,-0.91 -1.524,-0.142 0,0.617 0.563,1.129 1.25,1.137 0.846,0.011 0.765,0.355 -0.25,1.066 -1.183,0.828 -1.038,0.921 0.689,0.436 2.157,-0.604 5.305,2.822 3.892,4.235 -0.32,0.32 -0.581,0.03 -0.581,-0.644 0,-0.674 -0.412,-0.972 -0.915,-0.661 -0.503,0.311 -1.131,0 -1.396,-0.691 -0.322,-0.84 -1.047,-0.489 -2.189,1.061 -0.939,1.275 -2.336,2.076 -3.104,1.782 -1.982,-0.761 -4.396,0.359 -4.396,2.039 0,0.784 0.675,1.684 1.5,2 0.825,0.317 1.5,1.004 1.5,1.528 0,0.524 -0.47,0.662 -1.044,0.307 -0.574,-0.355 -1.586,-0.212 -2.25,0.317 -0.663,0.529 -2.877,0.84 -4.92,0.691 -2.239,-0.164 -4.171,0.278 -4.864,1.113 -1.339,1.613 -3.283,0.831 -2.266,-0.913 0.378,-0.65 -0.337,-0.281 -1.589,0.819 -1.252,1.1 -2.455,1.888 -2.672,1.75 -0.217,-0.138 -0.395,-0.025 -0.395,0.25 0,0.453 0.607,0.65 1.25,0.405 5.465,-2.081 12.286,0.575 10.829,4.216 -0.945,2.36 -0.953,2.357 -1.016,-0.43 -0.042,-1.858 -0.454,-2.568 -1.218,-2.096 -0.763,0.473 -0.88,0.271 -0.345,-0.595 0.536,-0.868 0.419,-1.068 -0.349,-0.593 -0.708,0.437 -0.898,1.761 -0.489,3.404 0.599,2.405 0.497,2.546 -0.971,1.337 -1.424,-1.172 -2.059,-0.934 -4.788,1.795 -3.272,3.273 -4.398,3.51 -3.32,0.7 0.347,-0.904 1.313,-1.643 2.146,-1.643 1.3,0 1.32,-0.249 0.143,-1.75 -1.227,-1.566 -1.197,-1.613 0.289,-0.451 1.281,1.001 1.831,1.023 2.404,0.095 0.455,-0.735 0.322,-0.942 -0.341,-0.532 -0.597,0.369 -1.368,0.213 -1.714,-0.346 -0.345,-0.559 -0.076,-1.016 0.598,-1.016 0.674,0 0.99,-0.236 0.702,-0.524 -0.983,-0.982 -3.926,0.778 -3.436,2.055 0.74,1.931 -0.499,2.607 -2.219,1.21 -1.287,-1.044 -1.422,-0.955 -0.854,0.561 0.454,1.211 0.303,1.572 -0.46,1.1 -1.838,-1.136 -9.293,-1.321 -7.695,-0.191 0.917,0.649 0.249,0.766 -2.073,0.363 -4.098,-0.711 -3.612,0.124 0.81,1.393 1.949,0.558 2.934,0.547 2.577,-0.031 -0.318,-0.515 0.109,-0.936 0.95,-0.936 1.04,0 1.316,0.558 0.865,1.75 -0.963,2.542 -2.612,3.971 -4.034,3.497 -1.873,-0.624 -1.49,1.444 0.402,2.17 0.904,0.346 1.37,0.904 1.035,1.238 -0.334,0.334 -0.149,1.561 0.412,2.726 0.927,1.925 0.892,1.96 -0.384,0.385 -0.772,-0.954 -1.721,-1.418 -2.108,-1.031 -0.387,0.387 -0.376,-0.15 0.025,-1.195 0.71,-1.849 0.662,-1.849 -1.844,0.031 -1.415,1.061 -2.325,2.336 -2.021,2.834 0.303,0.497 0.01,0.569 -0.652,0.16 -0.921,-0.569 -0.929,-1.074 -0.032,-2.154 1.301,-1.567 0.181,-1.859 -1.952,-0.507 -0.813,0.514 -1.053,1.398 -0.586,2.154 0.59,0.955 0.303,1.08 -1.122,0.493 -1.053,-0.434 -2.476,-0.811 -3.164,-0.837 -0.687,-0.026 -1.286,-0.76 -1.329,-1.631 -0.043,-0.871 -0.29,-1.068 -0.548,-0.439 -0.258,0.629 -1.293,0.928 -2.301,0.664 -1.152,-0.301 -2.805,0.57 -4.452,2.346 -1.736,1.872 -2.625,2.323 -2.635,1.336 -0.014,-1.313 -0.132,-1.312 -1,0.01 -0.618,0.941 -1.265,1.127 -1.735,0.5 -0.413,-0.55 -1.553,-1.065 -2.535,-1.145 -1.464,-0.118 -1.565,0.121 -0.561,1.331 0.688,0.829 2.236,1.281 3.535,1.033 1.324,-0.253 2.311,0.046 2.311,0.7 0,1.401 -5.653,3.651 -7.444,2.964 -0.714,-0.274 -1.523,0.09 -1.798,0.81 -0.66,1.723 5.359,2.222 6.433,0.533 0.571,-0.9 0.787,-0.827 0.809,0.274 0.027,1.333 0.138,1.333 1,0 0.646,-1 0.974,-1.083 0.985,-0.25 0.019,1.544 3.442,1.627 6.201,0.15 1.495,-0.799 1.87,-0.799 1.376,0 -0.413,0.668 0.153,1.1 1.438,1.1 1.428,0 1.873,-0.407 1.367,-1.25 -0.597,-0.993 -0.439,-0.997 0.77,-0.02 1.176,0.952 20.386,1.237 84.692,1.258 l 83.171,0.028 v -66.458 c 0,-62.239 -0.111,-66.523 -1.75,-67.478 -1.658,-0.966 -1.656,-1.021 0.033,-1.05 2.011,-0.034 2.225,-14.913 0.217,-15.145 -0.55,-0.064 -1.45,-0.22 -2,-0.348 -0.55,-0.128 -1.589,-0.301 -2.309,-0.385 -0.72,-0.083 -1.05,-0.571 -0.734,-1.083 0.317,-0.512 0.049,-1.256 -0.595,-1.654 -0.705,-0.436 -0.904,-0.292 -0.5,0.361 0.369,0.597 0.213,1.368 -0.346,1.714 -0.913,0.564 -1.451,-0.735 -1.134,-2.74 0.13,-0.823 -0.806,-1.056 -1.007,-0.25"
     stroke="none"
     fill="#ffffff"
     fill-rule="evenodd"
     id="path2"
     sodipodi:nodetypes="ccccscccccccccccscccccsscccccccccccccccccccccsccccsccccscccccccccccccccsccccsccscccccscssccsccccccccccccccccccccccccccscsccscssccscsccccssccsccsssccccscscccsscsccsccccccscssssssscccssscccccssccscscscccsssscccsccccccccscccccssscscscccccccccscscccscsscssccccccscccccsssscscccccccsssssccscssssccsccscscscccccssscscsscccsscccssssccscssccccsssccscsccccsscccscsccccccccssccccscscccsccssssscscsccscssccccccssccccssccscccccsc" />
  <path
     d="m 610.5,240.391 c -3.162,1.384 -52.302,51.793 -55.902,57.345 -1.915,2.954 -2.403,3.173 -5.598,2.509 -12.192,-2.533 -39.018,0.392 -51.076,5.57 l -4.576,1.965 -5.424,-5.184 c -7.983,-7.628 -30.394,-28.39 -45.335,-41.997 -24.201,-22.042 -22.472,-22.629 -65.593,22.28 -46.225,48.14 -45.413,45.344 -19.936,68.64 16.541,15.126 16.029,13.008 4.69,19.428 -36.596,20.72 -50.805,46.749 -40.969,75.053 1.051,3.025 2.2,8.668 2.552,12.541 1.195,13.109 12.34,82.612 27.654,172.459 5.016,29.425 11.776,69.371 15.023,88.769 7.092,42.375 -5.734,24.869 85.708,116.981 L 528.407,914 h 12.418 c 152.359,0 293.489,-92.94 348.497,-229.5 14.458,-35.894 21.277,-64.783 26.741,-113.305 l 1.161,-10.305 -32.403,-32.195 C 867,510.988 815.209,459.45 769.729,414.166 l -82.689,-82.333 3.168,-3.942 c 3.984,-4.958 5.018,-13.504 2.322,-19.187 -2.003,-4.221 -66.376,-67.315 -70.14,-68.746 -3.457,-1.314 -8.3,-1.138 -11.89,0.433 m -6.5,42.222 c -6.325,6.838 -14.333,15.531 -17.796,19.317 l -6.296,6.884 8.374,5.458 c 14.437,9.411 26.207,22.384 38.388,42.314 1.114,1.823 20.511,-16.817 36.318,-34.902 l 3.336,-3.817 -13.912,-13.483 c -18.409,-17.841 -36.054,-34.406 -36.53,-34.294 -0.21,0.05 -5.557,5.685 -11.882,12.523 m -185.167,-5.725 c -0.183,0.489 -10.97,11.851 -23.97,25.25 -27.964,28.822 -25.948,24.556 -15.818,33.461 l 8.307,7.301 4.074,-4.348 c 6.593,-7.037 8.705,-7.315 35.923,-4.727 31.057,2.953 27.765,3.384 35.797,-4.695 l 6.829,-6.87 -10.238,-9.991 C 446.58937,299.30784 420.69846,275.80374 419.879,276 c -0.38122,0.0913 -0.862,0.4 -1.046,0.888 m 97.667,49.519 c -12.047,2.749 -21.098,7.411 -30.797,15.863 l -3.797,3.309 2.797,4.961 c 2.703,4.794 2.789,5.387 2.561,17.71 -0.271,14.578 -0.421,14.411 7.485,8.316 25.428,-19.605 64.596,-25.689 97.702,-15.176 8.549,2.715 8.728,2.575 4.433,-3.49 -18.375,-25.951 -50.136,-38.394 -80.384,-31.493 m -105.961,32.548 c -0.179,0.3 -0.653,12.254 -1.053,26.565 l -0.727,26.021 24.674,1.842 c 13.571,1.014 24.828,1.68 25.015,1.48 0.188,-0.2 0.952,-11.726 1.698,-25.614 l 1.357,-25.252 -3.001,-0.546 c -6.229,-1.135 -47.651,-5.018 -47.963,-4.496 M 544,382.693 c -69.206,11.633 -97.363,95.081 -49.12,145.576 60.17,62.98 164.707,9.921 149.735,-76 C 636.738,407.062 590.253,374.917 544,382.693 m -170.201,11.668 c -55.984,31.904 -23.236,73.769 67.351,86.099 l 4.65,0.633 0.494,-17.297 c 0.271,-9.513 0.654,-18.185 0.85,-19.271 0.326,-1.808 -0.533,-2.072 -10.144,-3.115 -42.961,-4.663 -43.627,-4.819 -49.429,-11.598 -5.276,-6.164 -6.756,-19.704 -4.05,-37.062 0.585,-3.753 -0.675,-3.544 -9.722,1.611 M 660.5,390.709 c -6.648,0.421 -17.5,2.423 -17.5,3.227 0,0.415 0.953,1.611 2.119,2.659 13.367,12.02 26.845,46.198 26.875,68.155 0.007,5.301 -0.794,5.427 12.766,-2 36.081,-19.762 39.095,-41.84 8.474,-62.066 -13.429,-8.869 -19.76,-10.799 -32.734,-9.975 m 47.514,88.351 c -4.287,3.664 -26.62,15.083 -34.127,17.45 l -5.509,1.736 -2.847,8.127 c -2.896,8.265 -7.827,18.668 -11.457,24.169 l -2.007,3.042 20.858,20.841 c 20.222,20.205 20.875,20.752 21.437,17.958 0.318,-1.586 2.596,-13.683 5.062,-26.883 11.194,-59.921 12.738,-67.953 13.201,-68.702 1.068,-1.729 -1.302,-0.566 -4.611,2.262 m -356.582,0.19 c 1.551,7.419 4.117,22.166 9.092,52.25 3.093,18.7 7.603,44.8 10.023,58 2.42,13.2 5.966,33.955 7.881,46.122 1.915,12.168 5.502,33.318 7.972,47 2.47,13.683 5.889,33.614 7.598,44.292 3.528,22.046 3.278,21.351 9.806,27.218 23.213,20.864 87.581,34.525 145.382,30.856 47.091,-2.989 91.707,-16.767 107.571,-33.22 3.16,-3.277 3.375,-4.067 7.183,-26.323 6.948,-40.605 11.074,-63.673 13.494,-75.445 l 2.365,-11.5 -3.293,-3.5 c -9.561,-10.16 -11.18,-26.189 -3.786,-37.474 l 2.604,-3.973 -20.814,-20.317 -20.815,-20.318 -2.598,2.417 c -53.423,49.715 -150.236,24.738 -178.683,-46.097 -0.058,-0.145 -6.587,-1.393 -14.51,-2.775 -35.133,-6.129 -60.005,-14.201 -78.351,-25.431 -7.574,-4.635 -8.772,-4.898 -8.121,-1.782 m 35.896,52.272 c -10.358,8.166 -6.115,20.75 16.517,48.978 60.355,75.279 170.364,84.297 240.754,19.736 l 6.83,-6.265 -8.846,-8.888 -8.847,-8.888 -8.118,7.029 c -70.676,61.196 -173.429,41.794 -215.602,-40.71 -6.838,-13.378 -14.779,-17.226 -22.688,-10.992 m 321.172,56.46 c -15.075,7.464 -22.101,25.955 -14.327,37.704 5.643,8.526 88.63,91.073 93.385,92.889 22.236,8.492 43.436,-14.795 33.607,-36.916 -2.085,-4.693 -88.763,-90.824 -94.461,-93.865 -4.471,-2.386 -13.186,-2.296 -18.204,0.188"
     stroke="none"
     fill="#083440"
     fill-rule="evenodd"
     id="path4"
     sodipodi:nodetypes="cccsccccccccccccscccccccccccccccccccccccccscccsccccccccccccccccccccccccscccccsccsccscccccccccccccccscccccccccccccccccccccccccsccccccsc" />
  <path
     d="M 498,152.06 C 210.156,178.71 48.999,513.116 211.647,746.248 c 31.477,45.118 36.058,50.108 171.211,186.51 l 90.422,91.259 178.692,-0.028 c 195.106,-0.03 165.11178,0.043 178.52685,0.071 37.48299,-0.8629 173.99305,0.7912 194.02435,0.1529 0.048,-8.8216 -0.9356,-103.9359 -0.6339,-161.96007 3.3331,-6.51529 0.091,-19.69543 0.091,-185.10543 l -0,-183.647 -36.701,-37 C 926.008,394.731 897.209,365.367 879.394,346.5 855.951,321.672 855.531,321.198 843.461,306 756.173,196.091 629.946,139.843 498,152.06 m 112.5,88.331 c -3.162,1.384 -52.302,51.793 -55.902,57.345 -1.915,2.954 -2.403,3.173 -5.598,2.509 -12.192,-2.533 -39.018,0.392 -51.076,5.57 l -4.576,1.965 -5.424,-5.184 c -7.983,-7.628 -30.394,-28.39 -45.335,-41.997 -24.201,-22.042 -22.472,-22.629 -65.593,22.28 -46.225,48.14 -45.413,45.344 -19.936,68.64 16.541,15.126 16.029,13.008 4.69,19.428 -36.596,20.72 -50.805,46.749 -40.969,75.053 1.051,3.025 2.2,8.668 2.552,12.541 1.195,13.109 12.34,82.612 27.654,172.459 5.016,29.425 11.776,69.371 15.023,88.769 7.092,42.375 -5.734,24.869 85.708,116.981 L 528.407,914 h 12.418 c 152.359,0 293.489,-92.94 348.497,-229.5 14.458,-35.894 21.277,-64.783 26.741,-113.305 l 1.161,-10.305 -32.403,-32.195 C 867,510.988 815.209,459.45 769.729,414.166 l -82.689,-82.333 3.168,-3.942 c 3.984,-4.958 5.018,-13.504 2.322,-19.187 -2.003,-4.221 -66.376,-67.315 -70.14,-68.746 -3.457,-1.314 -8.3,-1.138 -11.89,0.433 m 36.301,60.176 c -0.54,2.395 -32.104,35.531 -33.379,35.041 -0.682,-0.261 1.242,2.982 4.275,7.208 3.033,4.226 6.376,9.372 7.429,11.434 2.469,4.836 13.236,-4.424 37.844,-32.55 l 3.324,-3.799 -9.596,-9.335 c -5.468,-5.319 -9.725,-8.76 -9.897,-7.999 m -197.392,2.142 c 1.801,2.178 1.767,2.284 -2.384,7.5 -5.822,7.317 -20.061,22.163 -21.951,22.889 -0.857,0.329 5.749,1.19 14.68,1.913 l 16.238,1.315 7.146,-7.188 c 3.93,-3.953 6.954,-7.289 6.721,-7.413 -0.233,-0.124 -5.34,-4.95 -11.35,-10.725 -6.009,-5.775 -10.104,-9.506 -9.1,-8.291 m 128.512,35.529 c 1.078,1.437 1.068,1.814 -0.058,2.173 -9.923,3.163 -24.393,9.752 -29.863,13.598 -1.375,0.966 -3.4,1.938 -4.5,2.158 -1.1,0.221 3.625,0.226 10.5,0.013 13.888,-0.432 25.73,1.171 38.416,5.199 4.171,1.325 7.584,2.056 7.584,1.625 0,-1.752 -9.222,-12.941 -16.075,-19.504 -4.02,-3.85 -6.722,-6.218 -6.004,-5.262 m -143.195,61.491 c -0.677,15.279 -1.848,13.9 12.524,14.763 l 11.75,0.705 v -3.945 c 0,-2.169 0.289,-8.016 0.642,-12.992 l 0.642,-9.048 -10.892,-0.683 c -5.99,-0.376 -11.614,-0.883 -12.496,-1.127 -1.39,-0.385 -1.678,1.253 -2.17,12.327 m 244.487,-4.479 c 7.353,7.848 15.496,22.374 17.097,30.5 0.736,3.737 -0.202,4.132 -2.854,1.202 -5.479,-6.054 -18.649,-11.886 -28.969,-12.827 l -7.013,-0.64 3.619,7.508 c 6.702,13.903 10.883,30.684 10.901,43.757 0.003,2.337 0.483,4.25 1.065,4.25 0.582,0 0.841,-0.354 0.573,-0.786 -0.267,-0.432 0.269,-0.789 1.191,-0.793 3.03,-0.014 21.961,-11.371 27.705,-16.621 18.17,-16.606 14.921,-34.121 -9.294,-50.116 -5.913,-3.905 -16.407,-9.684 -17.585,-9.684 -0.23,0 1.374,1.913 3.564,4.25 m -249.124,51.532 c 16.726,15.557 15.448,15.048 16.26,6.468 0.352,-3.712 0.755,-7.649 0.895,-8.748 0.23,-1.793 -0.513,-2.065 -7.244,-2.661 -4.125,-0.366 -9.71,-0.954 -12.411,-1.309 l -4.911,-0.644 7.411,6.894 m 277.925,32.278 c -4.287,3.664 -26.62,15.083 -34.127,17.45 l -5.509,1.736 -2.847,8.127 c -2.896,8.265 -7.827,18.668 -11.457,24.169 l -2.007,3.042 21.023,20.958 c 11.563,11.527 20.927,20.508 20.808,19.958 -0.119,-0.55 0.043,-1.675 0.359,-2.5 0.316,-0.825 2.615,-12.525 5.11,-26 2.494,-13.475 6.341,-34.132 8.548,-45.904 2.207,-11.773 3.801,-21.747 3.542,-22.165 -0.258,-0.418 0.096,-0.988 0.787,-1.267 0.691,-0.278 0.806,-0.523 0.256,-0.544 -0.55,-0.021 -2.569,1.302 -4.486,2.94 M 488.5,558.902 c 3.3,3.437 9.662,9.478 14.139,13.424 4.476,3.946 12.914,11.392 18.75,16.548 L 532,598.248 v 9.876 9.876 h -4.167 c -2.291,0 -3.917,0.25 -3.612,0.555 0.305,0.305 7.468,0.087 15.917,-0.485 34.316,-2.322 60.018,-12.8 85.48,-34.846 l 8.118,-7.029 8.847,8.888 8.846,8.888 -6.83,6.265 c -48.801,44.76 -125.861,55.869 -184.489,26.598 -8.811,-4.4 -9.154,-4.493 -5.578,-1.511 19.401,16.174 53.513,32.823 72.232,35.255 6.91,0.897 6.419,-4.331 6.052,64.505 L 532.5,784.5 528,785.166 c -6.715,0.994 23.932,-0.082 35.5,-1.247 38.747,-3.901 79.598,-17.985 93.257,-32.151 3.16,-3.277 3.375,-4.067 7.183,-26.323 6.948,-40.605 11.074,-63.673 13.494,-75.445 l 2.365,-11.5 -3.293,-3.5 c -9.561,-10.16 -11.18,-26.189 -3.786,-37.474 l 2.604,-3.973 -20.814,-20.317 -20.815,-20.318 -2.598,2.417 C 596.136,587.87 524.844,588.877 488,557.357 l -5.5,-4.706 6,6.251"
     stroke="none"
     fill="#6bbae3"
     fill-rule="evenodd"
     id="path6"
     sodipodi:nodetypes="ccccccccccscsccccsccccccccccccsccccccccccccscccccccccccsccccccccssccccsccccccccccccsccccscccccccccccccccssccccscccccccsscscccccccccscccccccccccccc" />
</svg>
